<svg fill="#000000" height="800px" width="800px" version="1.1" id="Layer_1" xmlns="http://www.w3.org/2000/svg" xmlns:xlink="http://www.w3.org/1999/xlink" 
	 viewBox="0 0 310 310" xml:space="preserve">
<path d="M272.971,37.029C243.933,8.004,204.454-0.001,164.993,0C78.032,0,7.001,71.033,7.001,158.001
	c0,27.346,7.116,53.617,20.354,76.47L0,310l77.529-20.272c21.989,12.24,47.282,18.8,72.464,18.801h0.006
	c87.003,0,157.994-70.997,157.994-157.995C310,103.56,299.029,66.063,272.971,37.029z M164.993,280.001
	c-23.344,0-45.834-6.336-65.492-18.011l-4.665-2.764l-48.667,12.741l13.007-47.377l-3.045-4.917
	c-12.581-20.34-19.25-43.59-19.25-67.673c0-69.33,56.662-125.998,125.992-125.998c33.989,0,66.016,13.298,89.093,36.381
	c23.073,23.078,36.375,55.107,36.375,89.094C290.985,223.34,234.323,280.001,164.993,280.001z M227.611,181.372
	c-3.436-1.723-20.343-10.02-23.5-11.153c-3.154-1.136-5.449-1.725-7.746,1.724c-2.294,3.449-8.898,11.153-10.91,13.449
	c-2.014,2.295-4.025,2.582-7.465,0.859c-3.437-1.723-14.52-5.358-27.656-17.075c-10.21-9.096-17.101-20.343-19.115-23.79
	c-2.014-3.448-0.218-5.357,1.502-7.08c1.594-1.597,3.437-4.192,5.16-6.205c1.722-2.015,2.295-3.448,3.437-5.745
	c1.142-2.295,0.57-4.306-0.285-5.745s-7.746-18.65-10.626-25.54c-2.804-6.713-5.683-5.792-7.746-5.906
	c-1.984-0.114-4.28-0.114-6.574-0.114c-2.295,0-6.009,0.858-9.162,4.306c-3.156,3.448-12.036,11.725-12.036,28.584
	c0,16.858,12.321,33.15,14.043,35.447c1.723,2.294,24.08,38.68,58.324,51.755c34.244,13.072,34.244,8.71,40.413,8.14
	c6.173-0.571,20.343-8.309,23.223-16.343c2.877-8.032,2.877-14.882,2.018-16.341
	C233.62,184.818,231.046,183.095,227.611,181.372z"/>
</svg>